<?xml version="1.0" encoding="UTF-8" standalone="no"?>
<!-- Created with Inkscape (http://www.inkscape.org/) -->

<svg
   width="128"
   height="64"
   viewBox="0 0 33.866666 16.933333"
   version="1.1"
   id="svg5"
   inkscape:version="1.1 (c68e22c387, 2021-05-23)"
   sodipodi:docname="logo.svg"
   xmlns:inkscape="http://www.inkscape.org/namespaces/inkscape"
   xmlns:sodipodi="http://sodipodi.sourceforge.net/DTD/sodipodi-0.dtd"
   xmlns="http://www.w3.org/2000/svg"
   xmlns:svg="http://www.w3.org/2000/svg">
  <sodipodi:namedview
     id="namedview7"
     pagecolor="#ffffff"
     bordercolor="#666666"
     borderopacity="1.0"
     inkscape:pageshadow="2"
     inkscape:pageopacity="0.0"
     inkscape:pagecheckerboard="0"
     inkscape:document-units="mm"
     showgrid="false"
     units="px"
     width="128px"
     inkscape:zoom="2"
     inkscape:cx="57.25"
     inkscape:cy="55"
     inkscape:window-width="1858"
     inkscape:window-height="1057"
     inkscape:window-x="1134"
     inkscape:window-y="455"
     inkscape:window-maximized="1"
     inkscape:current-layer="text3019" />
  <defs
     id="defs2" />
  <g
     inkscape:label="Слой 1"
     inkscape:groupmode="layer"
     id="layer1">
    <g
       aria-label="Eng"
       id="text3752"
       style="font-size:10.5833px;line-height:1.25;font-family:'Noto Serif';-inkscape-font-specification:'Noto Serif';letter-spacing:0px;word-spacing:0px;stroke-width:0.264583">
      <g
         aria-label="English"
         id="text3019"
         style="font-size:9.87778px;font-family:'Ink Free';-inkscape-font-specification:'Ink Free, Normal';fill:#4747ff;stroke:#4847ff;stroke-width:0.264583">
        <path
           d="m 7.8260478,4.0661157 q 0,0.1185333 -0.1679223,0.2074333 -0.2667001,0.1481667 -0.8396113,0.316089 -0.5630335,0.1679222 -0.9285113,0.2370667 -0.5729112,0.1086556 -1.1557003,0.1778 -0.5729112,0.059267 -0.7408335,0.069145 0.00988,0.5729112 0.029633,1.1853336 0.019755,0.6025446 0.029633,0.8297335 Q 4.4379685,7.0393278 5.2084354,6.901039 L 5.583791,6.841772 q 0.6223001,-0.1086556 0.9581447,-0.3951112 0.1778,-0.1382889 0.2568222,-0.1382889 0.069145,0 0.1086556,0.079022 0.049389,0.069145 0.049389,0.1481667 0,0.1778001 -0.404989,0.3951112 -0.3951112,0.2074334 -0.8791224,0.3062112 -0.4049889,0.0889 -0.9087557,0.1679223 -0.5037668,0.079022 -0.6618113,0.098778 0.059267,1.6891004 0.3457223,2.5089557 0.2864556,0.09878 0.5630335,0.148167 0.2765778,0.03951 0.7112001,0.03951 0.4346223,0 0.8297335,-0.108656 Q 6.9469247,9.9730273 7.1839915,9.805105 7.430936,9.6371827 7.430936,9.4890161 q 0,-0.079022 -0.029633,-0.1481667 Q 7.37167,9.2618274 7.322281,9.1828049 7.302525,9.1531719 7.253136,9.0939049 7.213625,9.0247599 7.213625,8.9852493 q 0,-0.098778 0.2173112,-0.098778 0.1580444,0 0.2667,0.1382889 0.1185334,0.1284111 0.1185334,0.2864556 0,0.316089 -0.2864556,0.6223001 -0.2765779,0.3062111 -0.7704669,0.4938891 -0.4840112,0.197556 -1.076678,0.197556 -0.6025446,0 -0.987778,-0.06915 Q 4.3095581,10.49655 4.1120025,10.308873 3.8749358,10.042173 3.776158,9.3803613 3.687258,8.71855 3.6181135,7.6122387 3.4304357,7.6616276 3.193369,7.7011387 2.96618,7.730772 2.8476467,7.730772 q -0.1185334,0 -0.1975556,-0.069144 -0.069145,-0.079022 -0.069145,-0.1876779 0,-0.069144 0.019756,-0.1185333 0.029633,-0.049389 0.079022,-0.059267 0.3259667,-0.039511 0.4741334,-0.049389 L 3.5786021,7.1973718 Q 3.5390911,5.9231382 3.4995801,5.123038 q -0.1481667,0 -0.2370667,0.00988 l -0.4543779,0.00988 q -0.0889,0 -0.1382889,-0.049389 -0.049389,-0.049389 -0.049389,-0.1086556 0,-0.2370667 0.316089,-0.316089 Q 3.0550799,4.6489094 3.23288,4.6291534 3.4205578,4.5995204 3.4798245,4.5995204 3.6675023,4.392087 3.8946912,4.392087 q 0.039511,0 0.059267,0.069145 0.029633,0.059267 0.029633,0.0889 Q 4.6355248,4.5204935 5.5344028,4.4019602 6.1270696,4.3229379 7.3617921,4.0266045 L 7.72727,3.9475823 q 0.098778,0 0.098778,0.1185334 z"
           id="path15605" />
        <path
           d="m 11.945072,10.437284 q 0,0.118533 -0.09878,0.197555 -0.09878,0.0889 -0.237067,0.0889 -0.09878,0 -0.167922,-0.04939 -0.06915,-0.03951 -0.06915,-0.118533 0,-0.404989 0.05927,-1.254478 0.05927,-0.9087557 0.05927,-1.5113003 0,-0.582789 -0.03951,-0.9482669 -0.02963,-0.3753556 -0.158044,-0.3753556 -0.335845,0 -0.740833,0.8396113 Q 10.157194,8.135761 9.6435498,9.4988946 L 9.4953831,9.8940058 q -0.039511,0.098778 -0.138289,0.1580442 -0.0889,0.05927 -0.1876778,0.05927 -0.1185333,0 -0.1580445,-0.01976 -0.039511,-0.01975 -0.049389,-0.1185329 L 8.8829607,9.1630501 8.734794,7.7406498 Q 8.6656495,6.8911607 8.5668717,6.2589828 8.5372384,6.1108161 8.5372384,6.0317939 q 0,-0.1481667 0.1284111,-0.2370668 0.1284112,-0.098778 0.2963334,-0.098778 0.098778,0 0.138289,0.4741335 0.049389,0.4741334 0.098778,1.5310559 l 0.039511,0.5235223 q 0.079022,0.9976558 0.0889,1.2643559 0.029633,-0.059267 0.049389,-0.1284112 0.029633,-0.079022 0.069145,-0.1679222 0.5334001,-1.3828892 0.9976561,-2.3015228 0.474133,-0.9285113 0.908756,-0.9285113 0.306211,0 0.414866,0.5235223 0.118534,0.5136446 0.148167,1.3236226 0.02963,0.8988779 0.02963,2.6274899 z"
           id="path15607" />
        <path
           d="m 17.496376,10.269361 q 0,0.770467 -0.306211,1.402645 -0.306211,0.632178 -0.721078,1.027289 -0.424745,0.404989 -0.889,0.651934 -0.454378,0.256822 -0.790223,0.256822 -0.187678,0 -0.2667,-0.09878 -0.07902,-0.0889 -0.07902,-0.217311 0,-0.118533 0.4445,-0.276578 0.671689,-0.217311 1.2446,-0.730955 0.4445,-0.395112 0.651934,-0.898878 0.207433,-0.503767 0.207433,-1.02729 0,-0.5926663 -0.07902,-1.0865553 -0.06914,-0.493889 -0.227189,-1.2149669 -0.1778,-0.7605891 -0.246945,-1.2939892 -0.167922,0.4543779 -0.523522,1.0964336 -0.345722,0.6420557 -0.829733,1.2347225 -0.454378,0.5630334 -0.829734,0.8396112 -0.365478,0.2765781 -0.7112,0.2765781 -0.296333,0 -0.4445,-0.2271892 -0.138289,-0.2370667 -0.138289,-0.6420556 0,-0.6716891 0.414867,-1.5804448 0.414866,-0.9087558 1.037167,-1.5606893 0.6223,-0.6519335 1.224844,-0.6519335 0.207434,0 0.316089,0.1481667 0.118534,0.1481667 0.118534,0.3556001 0,0.2667001 -0.108656,0.2667001 -0.02963,0 -0.07902,-0.069145 -0.03951,-0.079022 -0.09878,-0.1382889 -0.05927,-0.059267 -0.128411,-0.059267 -0.503767,0 -1.027289,0.5630335 -0.513645,0.5630334 -0.859367,1.3236225 -0.335845,0.7507113 -0.335845,1.2347225 0,0.2667001 0.06915,0.3852334 0.07902,0.1185334 0.237066,0.1185334 0.237067,0 0.572912,-0.2765779 0.335844,-0.2765778 0.8001,-0.8692446 0.414867,-0.5235223 0.750711,-1.2149669 0.345722,-0.7013224 0.523523,-1.3335003 0.01975,-0.059267 0.05927,-0.098778 0.04939,-0.039511 0.108656,-0.039511 0.0889,0 0.1778,0.059267 0.09878,0.049389 0.09878,0.1086556 0,0.039511 -0.01976,0.0889 -0.0099,0.039511 -0.01975,0.049389 0.06914,0.5432779 0.325966,1.6891004 0.187678,0.809978 0.276578,1.3631336 0.09878,0.5432779 0.09878,1.0668002 z"
           id="path15609" />
        <path
           d="m 19.412663,10.101439 q 0,0.09878 -0.128411,0.158045 -0.128411,0.05927 -0.286455,0.05927 -0.118534,0 -0.227189,-0.276577 -0.09878,-0.2864561 -0.09878,-0.8593673 0.0099,-1.1161892 0.02963,-2.696634 0.02963,-1.5804448 0.04939,-2.3805449 0.0099,-0.2864556 0.09878,-0.5334001 0.09878,-0.2469445 0.335845,-0.2469445 0.07902,0 0.09878,0.0889 0.02963,0.079022 0.02963,0.3160889 0,0.00988 -0.0099,0.069145 0,0.049389 0,0.1876778 -0.1778,2.5978561 -0.1778,5.0673011 0,0.316089 0.138289,0.6716891 0.148166,0.3555999 0.148166,0.3753549 z"
           id="path15611" />
        <path
           d="m 21.081996,4.184649 q 0,0.1481667 -0.325966,0.1481667 -0.167923,0 -0.345723,-0.1382889 -0.167922,-0.1382889 -0.167922,-0.2271889 0,-0.1086556 0.09878,-0.2074334 0.108655,-0.098778 0.217311,-0.098778 0,0 0.06914,0.029633 0.07902,0.019756 0.1778,0.1284112 0.07902,0.079022 0.1778,0.2074333 0.09878,0.1284112 0.09878,0.158045 z m 0.246945,6.213124 q 0,0.09878 -0.0889,0.148166 -0.07902,0.05927 -0.187678,0.04939 -0.138289,-0.0099 -0.207433,-0.4445 -0.05927,-0.4346222 -0.128412,-1.6495891 -0.03951,-0.8001002 -0.06914,-1.5606893 -0.02963,-0.7704668 -0.03951,-1.1853336 0,-0.1086556 0.02963,-0.1580445 0.03951,-0.059267 0.138289,-0.059267 0.227189,0 0.286456,0.1876778 0.05927,0.1876778 0.05927,0.7210779 l -0.0099,1.1655781 q 0,0.9976557 0.05927,1.6002003 0,0.029633 0.0889,0.6321779 0.06914,0.4148675 0.06914,0.5531565 z"
           id="path15613" />
        <path
           d="m 26.139405,8.9852501 q 0,0.4346223 -0.3556,0.8396113 -0.345723,0.3951116 -0.918634,0.6321776 -0.572911,0.246945 -1.195211,0.246945 -0.424745,0 -0.572911,-0.07902 -0.148167,-0.07902 -0.148167,-0.217312 0,-0.0889 0.227189,-0.306211 0.227189,-0.2271887 0.306211,-0.2271887 0.118533,0 0.118533,0.049389 0,0.039511 -0.04939,0.079022 -0.04939,0.03951 -0.04939,0.06915 0,0.03951 0.118533,0.07902 0.128411,0.03951 0.306211,0.03951 0.414867,0 0.829734,-0.148166 0.424744,-0.1580414 0.691444,-0.4049859 0.2667,-0.2469444 0.2667,-0.5235223 0,-0.2667 -0.167922,-0.4247445 Q 25.378816,8.5308722 25.121994,8.4617277 24.875049,8.3827055 24.282382,8.2444166 23.630449,8.0962499 23.264971,7.9875943 22.909371,7.8690609 22.69206,7.7011387 22.474748,7.5233386 22.474748,7.2566386 q 0,-0.4741335 0.464256,-0.8692447 0.464256,-0.3951112 1.0668,-0.6223001 0.602545,-0.2271889 0.928512,-0.2271889 0.335844,0 0.335844,0.1975556 0,0.1185333 -0.07902,0.2667 -0.07902,0.1382889 -0.237067,0.1382889 -0.05927,0 -0.128411,-0.039511 -0.06914,-0.049389 -0.138289,-0.049389 -0.197555,0 -0.6223,0.1284112 -0.424744,0.1284111 -0.770467,0.3852334 -0.345722,0.2568223 -0.345722,0.6223001 0,0.2370667 0.2667,0.3556001 0.276578,0.1086556 1.017411,0.2765778 0.0889,0.029633 0.1778,0.049389 0.0889,0.00988 0.158045,0.029633 0.760589,0.1778 1.165578,0.404989 0.404989,0.2271889 0.404989,0.6815668 z"
           id="path15615" />
        <path
           d="m 31.285725,10.506428 q 0,0.118534 -0.07902,0.197556 -0.07902,0.0889 -0.207434,0.0889 -0.09878,0 -0.167922,-0.04939 -0.06914,-0.03951 -0.06914,-0.118533 l 0.01975,-0.6815673 q 0.04939,-1.2149669 0.04939,-1.9854337 0,-1.126067 -0.158044,-1.5705671 -0.158045,-0.4543778 -0.365478,-0.4543778 -0.464256,0 -1.165578,1.4421558 -0.701323,1.4322781 -1.353256,3.1312561 -0.04939,0.138289 -0.138289,0.2667 -0.07902,0.128411 -0.167922,0.128411 -0.217311,0 -0.217311,-0.138289 0,-0.602544 -0.04939,-2.2521334 -0.04939,-1.659467 -0.07902,-2.1829893 -0.0889,-1.7681226 -0.167922,-2.1829894 -0.07902,-0.4148668 -0.07902,-0.4445001 0,-0.098778 0.108656,-0.1481667 0.108655,-0.049389 0.276577,-0.049389 0.138289,0 0.197556,0.6321779 0.06914,0.6223001 0.09878,1.6002004 l 0.0099,0.2765778 q 0.01975,0.3062112 0.02963,1.7582448 0.0099,1.4421559 0.0099,2.1237227 0.454378,-1.1359447 0.849489,-2.0249449 0.404989,-0.8890002 0.928511,-1.659467 0.523522,-0.7803446 0.968022,-0.7803446 0.375356,0 0.632178,0.6321779 0.256823,0.6223001 0.256823,1.8669004 0,0.5531557 0.01975,1.5409337 z"
           id="path15617" />
      </g>
    </g>
  </g>
</svg>
