<?xml version="1.0" encoding="UTF-8" standalone="no"?>
<svg
   viewBox="0 0 60 30"
   width="1200"
   height="600"
   version="1.1"
   id="svg872"
   sodipodi:docname="logo.svg"
   inkscape:version="1.1 (c68e22c387, 2021-05-23)"
   xmlns:inkscape="http://www.inkscape.org/namespaces/inkscape"
   xmlns:sodipodi="http://sodipodi.sourceforge.net/DTD/sodipodi-0.dtd"
   xmlns="http://www.w3.org/2000/svg"
   xmlns:svg="http://www.w3.org/2000/svg">
  <defs
     id="defs876">
    <rect
       x="159.00615"
       y="89.162326"
       width="942.14858"
       height="426.49313"
       id="rect4787" />
    <filter
       style="color-interpolation-filters:sRGB;"
       inkscape:label="Blur"
       id="filter75916"
       x="-0.12329049"
       y="-0.17376812"
       width="1.246581"
       height="1.3475362">
      <feGaussianBlur
         stdDeviation="2 1.5"
         result="blur"
         id="feGaussianBlur75914" />
    </filter>
    <filter
       style="color-interpolation-filters:sRGB;"
       inkscape:label="Drop Shadow"
       id="filter81592"
       x="-0.0096503823"
       y="-0.018434343"
       width="1.0259106"
       height="1.0494949">
      <feFlood
         flood-opacity="1"
         flood-color="rgb(0,0,0)"
         result="flood"
         id="feFlood81582" />
      <feComposite
         in="flood"
         in2="SourceGraphic"
         operator="in"
         result="composite1"
         id="feComposite81584" />
      <feGaussianBlur
         in="composite1"
         stdDeviation="2"
         result="blur"
         id="feGaussianBlur81586" />
      <feOffset
         dx="5"
         dy="5"
         result="offset"
         id="feOffset81588" />
      <feComposite
         in="SourceGraphic"
         in2="offset"
         operator="over"
         result="composite2"
         id="feComposite81590" />
    </filter>
  </defs>
  <sodipodi:namedview
     id="namedview874"
     pagecolor="#ffffff"
     bordercolor="#666666"
     borderopacity="1.0"
     inkscape:pageshadow="2"
     inkscape:pageopacity="0.0"
     inkscape:pagecheckerboard="0"
     showgrid="false"
     inkscape:zoom="0.2"
     inkscape:cx="585"
     inkscape:cy="300"
     inkscape:window-width="1842"
     inkscape:window-height="1057"
     inkscape:window-x="1150"
     inkscape:window-y="455"
     inkscape:window-maximized="1"
     inkscape:current-layer="svg872" />
  <clipPath
     id="s">
    <path
       d="M0,0 v30 h60 v-30 z"
       id="path854" />
  </clipPath>
  <clipPath
     id="t">
    <path
       d="M30,15 h30 v15 z v15 h-30 z h-30 v-15 z v-15 h30 z"
       id="path857" />
  </clipPath>
  <g
     clip-path="url(#s)"
     id="g870">
    <path
       d="M 0,0 V 30 H 60 V 0 Z"
       fill="#012169"
       id="path860" />
    <path
       d="M 0,0 60,30 M 60,0 0,30"
       stroke="#ffffff"
       stroke-width="6"
       id="path862" />
    <path
       d="M 0,0 60,30 M 60,0 0,30"
       clip-path="url(#t)"
       stroke="#c8102e"
       stroke-width="4"
       id="path864" />
    <path
       d="M 30,0 V 30 M 0,15 h 60"
       stroke="#ffffff"
       stroke-width="10"
       id="path866" />
    <path
       d="M 30,0 V 30 M 0,15 h 60"
       stroke="#c8102e"
       stroke-width="6"
       id="path868" />
  </g>
  <rect
     style="fill:#ffffff;fill-opacity:0.40000001;stroke:none;stroke-width:0.25;stroke-linecap:round;stroke-linejoin:bevel;stroke-miterlimit:4;stroke-dasharray:none;stroke-opacity:1;filter:url(#filter75916)"
     id="rect71555"
     width="38.932442"
     height="20.717264"
     x="10.458715"
     y="4.7039199"
     rx="0.050000001"
     ry="0.050000001" />
  <g
     aria-label="Learning
English"
     transform="matrix(0.05,0,0,0.05,-1.5568065,-0.67700708)"
     id="text4785"
     style="font-weight:bold;font-size:176px;line-height:1.25;font-family:'Noto Sans';-inkscape-font-specification:'Noto Sans, Bold';text-align:center;letter-spacing:0px;word-spacing:0px;text-anchor:middle;white-space:pre;shape-inside:url(#rect4787);fill:#e59800;stroke:#b37900;stroke-width:5;filter:url(#filter81592)">
    <path
       d="m 252.91278,249.30014 v -125.664 h 26.576 v 103.664 h 51.04 v 22 z"
       id="path81612" />
    <path
       d="m 389.84054,151.44414 q 19.888,0 31.504,11.44 11.616,11.264 11.616,32.208 v 12.672 h -61.952 q 0.352,11.088 6.512,17.424 6.336,6.336 17.424,6.336 9.152,0 16.72,-1.76 7.744,-1.936 15.84,-5.808 v 20.24 q -7.216,3.52 -14.96,5.104 -7.744,1.76 -18.832,1.76 -14.432,0 -25.52,-5.28 -11.088,-5.456 -17.424,-16.192 -6.336,-10.912 -6.336,-27.632 0,-16.72 5.632,-27.984 5.808,-11.264 16.016,-16.896 10.208,-5.632 23.76,-5.632 z m 0.176,18.656 q -7.744,0 -12.672,4.928 -4.928,4.928 -5.808,15.312 h 36.784 q -0.176,-8.624 -4.752,-14.432 -4.4,-5.808 -13.552,-5.808 z"
       id="path81614" />
    <path
       d="m 493.68047,151.26814 q 19.36,0 29.568,8.448 10.384,8.272 10.384,25.52 v 64.064 h -18.304 l -5.104,-13.024 h -0.704 q -6.16,7.744 -13.024,11.264 -6.864,3.52 -18.832,3.52 -12.848,0 -21.296,-7.392 -8.448,-7.392 -8.448,-23.056 0,-15.312 10.736,-22.528 10.736,-7.216 32.208,-8.096 l 16.72,-0.528 v -4.224 q 0,-7.568 -4.048,-11.088 -3.872,-3.52 -10.912,-3.52 -7.04,0 -13.728,2.112 -6.688,1.936 -13.376,4.928 l -8.624,-17.776 q 7.568,-3.872 17.072,-6.16 9.504,-2.464 19.712,-2.464 z m 13.904,53.504 -10.208,0.352 q -12.672,0.352 -17.6,4.576 -4.928,4.224 -4.928,11.088 0,5.984 3.52,8.624 3.52,2.464 9.152,2.464 8.448,0 14.256,-4.928 5.808,-5.104 5.808,-14.256 z"
       id="path81616" />
    <path
       d="m 614.24015,151.44414 q 1.936,0 4.576,0.176 2.64,0.176 4.224,0.528 l -1.936,24.64 q -1.408,-0.352 -3.696,-0.528 -2.288,-0.352 -4.048,-0.352 -6.688,0 -12.848,2.464 -6.16,2.288 -10.032,7.568 -3.696,5.28 -3.696,14.432 v 48.928 h -26.224 v -96.096 h 19.888 l 3.872,16.192 h 1.232 q 4.224,-7.392 11.616,-12.672 7.392,-5.28 17.072,-5.28 z"
       id="path81618" />
    <path
       d="m 695.0239,151.44414 q 15.488,0 24.816,8.448 9.328,8.272 9.328,26.752 v 62.656 h -26.224 v -56.144 q 0,-10.384 -3.696,-15.488 -3.696,-5.28 -11.792,-5.28 -11.968,0 -16.368,8.272 -4.4,8.096 -4.4,23.408 v 45.232 h -26.224 v -96.096 h 20.064 l 3.52,12.32 h 1.408 q 4.576,-7.392 12.496,-10.736 8.096,-3.344 17.072,-3.344 z"
       id="path81620" />
    <path
       d="m 769.29583,115.54014 q 5.808,0 10.032,2.816 4.224,2.64 4.224,10.032 0,7.216 -4.224,10.032 -4.224,2.816 -10.032,2.816 -5.984,0 -10.208,-2.816 -4.048,-2.816 -4.048,-10.032 0,-7.392 4.048,-10.032 4.224,-2.816 10.208,-2.816 z m 13.024,37.664 v 96.096 h -26.224 v -96.096 z"
       id="path81622" />
    <path
       d="m 864.33552,151.44414 q 15.488,0 24.816,8.448 9.328,8.272 9.328,26.752 v 62.656 h -26.224 v -56.144 q 0,-10.384 -3.696,-15.488 -3.696,-5.28 -11.792,-5.28 -11.968,0 -16.368,8.272 -4.4,8.096 -4.4,23.408 v 45.232 h -26.224 v -96.096 h 20.064 l 3.52,12.32 h 1.408 q 4.576,-7.392 12.496,-10.736 8.096,-3.344 17.072,-3.344 z"
       id="path81624" />
    <path
       d="m 956.55947,151.44414 q 17.776,0 27.808,14.08 h 0.704 l 2.112,-12.32 h 22.17603 v 96.272 q 0,20.592 -12.14403,31.328 -12.144,10.736 -35.904,10.736 -10.208,0 -19.008,-1.232 -8.624,-1.232 -16.896,-4.4 v -20.944 q 17.6,7.392 37.488,7.392 20.24,0 20.24,-21.824 v -1.936 q 0,-2.816 0.176,-5.984 0.176,-3.344 0.528,-5.808 h -0.704 q -4.928,7.568 -11.792,10.912 -6.864,3.344 -15.488,3.344 -17.072,0 -26.752,-13.024 -9.504,-13.2 -9.504,-36.608 0,-23.584 9.856,-36.784 9.856,-13.2 27.104,-13.2 z m 8.272,21.296 q -18.48,0 -18.48,29.04 0,28.688 18.832,28.688 10.032,0 14.784,-5.632 4.928,-5.808 4.928,-20.064 v -3.168 q 0,-15.488 -4.752,-22.176 -4.752,-6.688 -15.312,-6.688 z"
       id="path81626" />
    <path
       d="m 400.22455,469.30014 h -72.336 v -125.664 h 72.336 v 21.824 h -45.76 v 27.632 h 42.592 v 21.824 h -42.592 v 32.384 h 45.76 z"
       id="path81628" />
    <path
       d="m 478.89646,371.44414 q 15.488,0 24.816,8.448 9.328,8.272 9.328,26.752 v 62.656 h -26.224 v -56.144 q 0,-10.384 -3.696,-15.488 -3.696,-5.28 -11.792,-5.28 -11.968,0 -16.368,8.272 -4.4,8.096 -4.4,23.408 v 45.232 h -26.224 v -96.096 h 20.064 l 3.52,12.32 h 1.408 q 4.576,-7.392 12.496,-10.736 8.096,-3.344 17.072,-3.344 z"
       id="path81630" />
    <path
       d="m 571.12039,371.44414 q 17.776,0 27.808,14.08 h 0.704 l 2.112,-12.32 h 22.176 v 96.272 q 0,20.592 -12.144,31.328 -12.144,10.736 -35.904,10.736 -10.208,0 -19.008,-1.232 -8.624,-1.232 -16.896,-4.4 v -20.944 q 17.6,7.392 37.488,7.392 20.24,0 20.24,-21.824 v -1.936 q 0,-2.816 0.176,-5.984 0.176,-3.344 0.528,-5.808 h -0.704 q -4.928,7.568 -11.792,10.912 -6.864,3.344 -15.488,3.344 -17.072,0 -26.752,-13.024 -9.504,-13.2 -9.504,-36.608 0,-23.584 9.856,-36.784 9.856,-13.2 27.104,-13.2 z m 8.272,21.296 q -18.48,0 -18.48,29.04 0,28.688 18.832,28.688 10.032,0 14.784,-5.632 4.928,-5.808 4.928,-20.064 v -3.168 q 0,-15.488 -4.752,-22.176 -4.752,-6.688 -15.312,-6.688 z"
       id="path81632" />
    <path
       d="m 677.60028,469.30014 h -26.224 v -133.76 h 26.224 z"
       id="path81634" />
    <path
       d="m 718.256,335.54014 q 5.808,0 10.032,2.816 4.224,2.64 4.224,10.032 0,7.216 -4.224,10.032 -4.224,2.816 -10.032,2.816 -5.984,0 -10.208,-2.816 -4.048,-2.816 -4.048,-10.032 0,-7.392 4.048,-10.032 4.224,-2.816 10.208,-2.816 z m 13.024,37.664 v 96.096 h -26.224 v -96.096 z"
       id="path81636" />
    <path
       d="m 825.79172,440.78814 q 0,14.608 -10.384,22.528 -10.208,7.744 -30.624,7.744 -10.032,0 -17.248,-1.408 -7.216,-1.232 -14.432,-4.224 v -21.648 q 7.744,3.52 16.72,5.808 8.976,2.288 15.84,2.288 7.568,0 10.912,-2.288 3.344,-2.288 3.344,-5.984 0,-2.464 -1.408,-4.4 -1.232,-1.936 -5.632,-4.4 -4.4,-2.464 -13.728,-6.336 -9.152,-3.872 -14.96,-7.568 -5.632,-3.872 -8.448,-9.152 -2.816,-5.456 -2.816,-13.552 0,-13.376 10.384,-20.064 10.384,-6.688 27.632,-6.688 8.976,0 17.072,1.76 8.096,1.76 16.72,5.808 l -7.92,18.832 q -7.04,-2.992 -13.376,-4.928 -6.336,-2.112 -12.848,-2.112 -11.616,0 -11.616,6.336 0,2.288 1.408,4.224 1.584,1.76 5.808,3.872 4.4,2.112 12.848,5.632 8.272,3.344 14.256,7.04 5.984,3.52 9.152,8.976 3.344,5.456 3.344,13.904 z"
       id="path81638" />
    <path
       d="m 872.43171,335.54014 v 27.28 q 0,7.216 -0.528,13.728 -0.352,6.336 -0.704,8.976 h 1.408 q 4.576,-7.392 11.792,-10.736 7.216,-3.344 16.016,-3.344 15.488,0 24.992,8.448 9.504,8.272 9.504,26.752 v 62.656 h -26.224 v -56.144 q 0,-20.768 -15.488,-20.768 -11.792,0 -16.368,8.272 -4.4,8.096 -4.4,23.408 v 45.232 h -26.224 v -133.76 z"
       id="path81640" />
  </g>
</svg>
