<?xml version="1.0" encoding="UTF-8" standalone="no"?>
<!-- Created with Inkscape (http://www.inkscape.org/) -->

<svg
   width="64"
   height="64"
   viewBox="0 0 16.933333 16.933333"
   version="1.1"
   id="svg5"
   inkscape:version="1.1 (c68e22c387, 2021-05-23)"
   sodipodi:docname="logo.svg"
   xmlns:inkscape="http://www.inkscape.org/namespaces/inkscape"
   xmlns:sodipodi="http://sodipodi.sourceforge.net/DTD/sodipodi-0.dtd"
   xmlns="http://www.w3.org/2000/svg"
   xmlns:svg="http://www.w3.org/2000/svg">
  <sodipodi:namedview
     id="namedview7"
     pagecolor="#ffffff"
     bordercolor="#666666"
     borderopacity="1.0"
     inkscape:pageshadow="2"
     inkscape:pageopacity="0.0"
     inkscape:pagecheckerboard="0"
     inkscape:document-units="mm"
     showgrid="false"
     units="px"
     width="64px"
     inkscape:zoom="8"
     inkscape:cx="33.0625"
     inkscape:cy="33.5"
     inkscape:window-width="1858"
     inkscape:window-height="1057"
     inkscape:window-x="1134"
     inkscape:window-y="455"
     inkscape:window-maximized="1"
     inkscape:current-layer="text3752" />
  <defs
     id="defs2" />
  <g
     inkscape:label="Слой 1"
     inkscape:groupmode="layer"
     id="layer1">
    <g
       aria-label="Eng"
       id="text3752"
       style="font-size:10.5833px;line-height:1.25;font-family:'Noto Serif';-inkscape-font-specification:'Noto Serif';letter-spacing:0px;word-spacing:0px;stroke-width:0.264583">
      <path
         d="m 6.2540532,3.7549661 q 0,0.1185333 -0.1679223,0.2074333 Q 5.8194308,4.1105661 5.2465196,4.2784884 4.6834861,4.4464107 4.3180083,4.5155551 3.745097,4.6242107 3.162308,4.6933552 q -0.5729112,0.059267 -0.7408335,0.069144 0.00988,0.5729112 0.029633,1.1853336 0.019756,0.6025446 0.029633,0.8297335 0.3852334,-0.049389 1.1557003,-0.1876778 L 4.0117971,6.5306222 Q 4.6340972,6.4219666 4.9699418,6.135511 q 0.1778,-0.1382889 0.2568222,-0.1382889 0.069145,0 0.1086556,0.079022 0.049389,0.069145 0.049389,0.1481667 0,0.1778001 -0.404989,0.3951112 -0.3951112,0.2074334 -0.8791224,0.3062112 -0.404989,0.0889 -0.9087557,0.1679223 -0.5037668,0.079022 -0.6618113,0.098778 0.059267,1.6891004 0.3457223,2.5089561 0.2864556,0.098778 0.5630335,0.1481667 0.2765778,0.039511 0.7112001,0.039511 0.4346223,0 0.8297335,-0.1086556 Q 5.3749307,9.6618785 5.6119975,9.4939562 5.858942,9.326034 5.858942,9.1778673 q 0,-0.079022 -0.029633,-0.1481667 Q 5.799676,8.9506786 5.750287,8.8716561 5.730531,8.8420231 5.681142,8.7827561 5.641631,8.7136111 5.641631,8.6741005 q 0,-0.098778 0.2173112,-0.098778 0.1580444,0 0.2667,0.1382889 0.1185334,0.1284111 0.1185334,0.2864556 0,0.316089 -0.2864556,0.6223002 -0.2765779,0.3062111 -0.7704669,0.4938888 -0.4840112,0.197556 -1.076678,0.197556 -0.6025446,0 -0.987778,-0.06915 Q 2.7375635,10.185401 2.5400079,9.997723 2.3029412,9.7310229 2.2041634,9.0692117 2.1152634,8.4074004 2.0461189,7.3010891 q -0.1876778,0.049389 -0.4247445,0.0889 -0.227189,0.029633 -0.3457223,0.029633 -0.1185334,0 -0.1975556,-0.069144 -0.069144,-0.079022 -0.069144,-0.1876779 0,-0.069144 0.019756,-0.1185333 0.029633,-0.049389 0.079022,-0.059267 0.3259667,-0.039511 0.4741334,-0.049389 l 0.4247446,-0.049389 q -0.039511,-1.2742336 -0.079022,-2.0743338 -0.1481667,0 -0.2370667,0.00988 l -0.4543779,0.00988 q -0.0889,0 -0.1382889,-0.049389 -0.049389,-0.049389 -0.049389,-0.1086556 0,-0.2370667 0.316089,-0.316089 0.1185333,-0.019756 0.2963334,-0.039511 0.1876778,-0.029633 0.2469445,-0.029633 0.1876778,-0.2074334 0.4148667,-0.2074334 0.039511,0 0.059267,0.069145 0.029633,0.059267 0.029633,0.0889 Q 3.0635302,4.2093439 3.9624082,4.0908106 4.555075,4.0117883 5.7897975,3.7154549 l 0.3654779,-0.079022 q 0.098778,0 0.098778,0.1185332 z"
         style="font-size:9.87778px;font-family:'Ink Free';-inkscape-font-specification:'Ink Free, Normal'"
         id="path20866" />
      <path
         d="m 10.373078,10.126134 q 0,0.118533 -0.09878,0.197556 -0.09878,0.0889 -0.237067,0.0889 -0.098777,0 -0.1679219,-0.04939 -0.069144,-0.03951 -0.069144,-0.118534 0,-0.4049885 0.059267,-1.2544776 Q 9.9187,8.0814337 9.9187,7.4788891 9.9187,6.8961001 9.879189,6.5306222 9.849556,6.1552666 9.7211445,6.1552666 9.3853,6.1552666 8.980311,6.9948779 8.5851997,7.8246114 8.0715552,9.187745 L 7.9233885,9.5828562 q -0.039511,0.098778 -0.138289,0.1580445 -0.0889,0.059267 -0.1876778,0.059267 -0.1185333,0 -0.1580445,-0.019756 -0.039511,-0.019755 -0.049389,-0.1185333 L 7.3109661,8.8519005 7.1627994,7.4295002 Q 7.0936549,6.5800111 6.9948771,5.9478332 6.9652438,5.7996665 6.9652438,5.7206443 q 0,-0.1481667 0.1284111,-0.2370668 0.1284112,-0.098778 0.2963334,-0.098778 0.098778,0 0.138289,0.4741335 0.049389,0.4741334 0.098778,1.5310559 l 0.039511,0.5235223 q 0.079022,0.9976558 0.0889,1.2643559 0.029633,-0.059267 0.049389,-0.1284112 0.029633,-0.079022 0.069145,-0.1679222 Q 8.4074004,7.4986445 8.871656,6.5800109 9.3457895,5.6514996 9.7804118,5.6514996 q 0.3062112,0 0.4148672,0.5235223 0.118533,0.5136446 0.148167,1.3236226 0.02963,0.8988779 0.02963,2.6274895 z"
         style="font-size:9.87778px;font-family:'Ink Free';-inkscape-font-specification:'Ink Free, Normal'"
         id="path20868" />
      <path
         d="m 15.924381,9.9582119 q 0,0.7704671 -0.306211,1.4026451 -0.306211,0.632178 -0.721078,1.027289 -0.424744,0.404989 -0.889,0.651933 -0.454378,0.256822 -0.790222,0.256822 -0.187678,0 -0.2667,-0.09878 -0.07902,-0.0889 -0.07902,-0.217311 0,-0.118534 0.4445,-0.276578 0.671689,-0.217311 1.244601,-0.730956 0.4445,-0.395111 0.651933,-0.898878 0.207434,-0.503767 0.207434,-1.027289 0,-0.5926669 -0.07902,-1.0865559 -0.06914,-0.493889 -0.227189,-1.2149669 -0.1778,-0.7605891 -0.246944,-1.2939892 -0.167922,0.4543779 -0.523523,1.0964336 -0.345722,0.6420557 -0.829733,1.2347225 -0.454378,0.5630334 -0.829734,0.8396113 -0.365477,0.2765778 -0.7112,0.2765778 -0.296333,0 -0.4445,-0.2271889 -0.138289,-0.2370668 -0.138289,-0.6420557 0,-0.6716891 0.414867,-1.5804448 Q 12.22022,6.540497 12.84252,5.8885635 13.46482,5.23663 14.067365,5.23663 q 0.207433,0 0.316089,0.1481667 0.118533,0.1481667 0.118533,0.3556001 0,0.2667001 -0.108656,0.2667001 -0.02963,0 -0.07902,-0.069145 -0.03951,-0.079022 -0.09878,-0.1382889 -0.05927,-0.059267 -0.128411,-0.059267 -0.503767,0 -1.027289,0.5630335 -0.513644,0.5630334 -0.859367,1.3236225 -0.335844,0.7507113 -0.335844,1.2347225 0,0.2667001 0.06914,0.3852334 0.07902,0.1185334 0.237067,0.1185334 0.237067,0 0.572911,-0.2765779 0.335845,-0.2765778 0.8001,-0.8692446 0.414867,-0.5235223 0.750712,-1.2149669 0.345722,-0.7013224 0.523522,-1.3335003 0.01975,-0.059267 0.05927,-0.098778 0.04939,-0.039511 0.108655,-0.039511 0.0889,0 0.1778,0.059267 0.09878,0.049389 0.09878,0.1086556 0,0.039511 -0.01976,0.0889 -0.0099,0.039511 -0.01975,0.049389 0.06914,0.5432779 0.325967,1.6891004 0.187677,0.809978 0.276577,1.3631336 0.09878,0.5432779 0.09878,1.0668003 z"
         style="font-size:9.87778px;font-family:'Ink Free';-inkscape-font-specification:'Ink Free, Normal'"
         id="path20870" />
    </g>
  </g>
</svg>
